/* XPM */
static char *d0eb84d3723b49c781f57f1d1bc75b8b6DvgI5d6JLRJIpFe[] = {
/* columns rows colors chars-per-pixel */
"64 64 162 2 ",
"   c #0E1311",
".  c #131616",
"X  c #161B17",
"o  c #171918",
"O  c #1A1D1B",
"+  c #1E211E",
"@  c #20221F",
"#  c #1B1F20",
"$  c #1E2221",
"%  c #232623",
"&  c #282723",
"*  c #252925",
"=  c #292B27",
"-  c #232728",
";  c #262B2A",
":  c #2B2D2B",
">  c #27302F",
",  c #2E312E",
"<  c #32332E",
"1  c #2B2F30",
"2  c #2D3332",
"3  c #333533",
"4  c #353936",
"5  c #3A3B35",
"6  c #353A39",
"7  c #3B3D3B",
"8  c #3D413E",
"9  c #41423E",
"0  c #3E4342",
"q  c #424543",
"w  c #454945",
"e  c #494A45",
"r  c #424649",
"t  c #464A4A",
"y  c #4A4D4B",
"u  c #504F4B",
"i  c #47504F",
"p  c #4D514D",
"a  c #51524E",
"s  c #4C4F51",
"d  c #4E5252",
"f  c #525553",
"g  c #555956",
"h  c #595B56",
"j  c #535758",
"k  c #555A59",
"l  c #5B5D5B",
"z  c #5C615D",
"x  c #62645E",
"c  c #5B5F60",
"v  c #5E6362",
"b  c #636563",
"n  c #656966",
"m  c #696A66",
"M  c #62676A",
"N  c #656A6A",
"B  c #6A6D6C",
"V  c #6D716D",
"C  c #71726E",
"Z  c #666E70",
"A  c #696E71",
"S  c #6E7372",
"D  c #6E7779",
"F  c #727573",
"G  c #757976",
"H  c #797A76",
"J  c #727679",
"K  c #767A7A",
"L  c #7B7E7B",
"P  c #807F7B",
"I  c #75807C",
"U  c #7D817D",
"Y  c #82837E",
"T  c #85887F",
"R  c #777F81",
"E  c #7A7E80",
"W  c #778182",
"Q  c #7D8281",
"!  c #7E8885",
"~  c #7E8789",
"^  c #838583",
"/  c #888783",
"(  c #858985",
")  c #898B86",
"_  c #838688",
"`  c #858B8A",
"'  c #8A8D8B",
"]  c #908F8B",
"[  c #8C9187",
"{  c #8D918D",
"}  c #91938E",
"|  c #93998E",
" . c #8A8F90",
".. c #8E9392",
"X. c #8F9895",
"o. c #929693",
"O. c #959995",
"+. c #999C96",
"@. c #929798",
"#. c #969A99",
"$. c #9A9D9B",
"%. c #97A19E",
"&. c #9DA19D",
"*. c #A1A39E",
"=. c #9B9FA1",
"-. c #9EA2A1",
";. c #9FA8A5",
":. c #A2A6A3",
">. c #A6A8A3",
",. c #A3A8A4",
"<. c #A4A9A5",
"1. c #A5AAA6",
"2. c #A6ABA7",
"3. c #A5AAA4",
"4. c #A7ACA5",
"5. c #A4A9A5",
"6. c #A9ABA6",
"7. c #A9ABA7",
"8. c #A3A7A8",
"9. c #A7ACA8",
"0. c #A6ABA9",
"q. c #A8ADA9",
"w. c #AAAEAA",
"e. c #AAADAB",
"r. c #A7B0AC",
"t. c #ABB0AC",
"y. c #ACB1AE",
"u. c #B1B3AE",
"i. c #B1B3AF",
"p. c #A9AEB1",
"a. c #ADB1B0",
"s. c #AFB3B2",
"d. c #AFB4B0",
"f. c #ADB2B1",
"g. c #B1B3B0",
"h. c #B0B5B1",
"j. c #B1B6B2",
"k. c #B3B5B2",
"l. c #B5B7B2",
"z. c #B2B6B5",
"x. c #B1B6B3",
"c. c #B6B8B6",
"v. c #B4B9B7",
"b. c #B8BAB7",
"n. c #B6BAB9",
"m. c #B5BAB9",
"M. c #B9BDBB",
"N. c #BABEBE",
"B. c #B9BEBA",
"V. c #BBC0BC",
"C. c #C0C5BF",
"Z. c #C0C2BF",
"A. c #C1C5C4",
"S. c #C3C8C2",
"D. c #C2C8C6",
"F. c #C4C9C5",
"G. c #C3C7C8",
"H. c #C7CDCB",
"J. c #C5CAC9",
"K. c #C8CDC9",
"L. c #C8CDCA",
"P. c #CCD2CE",
/* pixels */
"#.^ C L h : ) ) Y ) Y U L L L F H U L H Q U ` v d  .L ^ L ' { ^ U U H L H Y ^ ^ 3 l ( F L L F L F ^ b - } ) ^ ) ^ Y Y U L G Q ' ",
"k.#.} &.( 9 l.k.u.u.7.7.>.&.&.+.} O.O.o...( o.K f J.N.n.v.v.w.:.O.| } } } $.&.g.5 l o.' o.$.o.} @.+.B = +.+.O.o.3.l.C.S.F.K.H.F.",
"@...^ ..U , k.k.t.1.5.9.1.&.+.o.{ ' ) ) ) U ' B - s.s.t.>.O.' / [ Y { ( H ' ' { 7 a ) F G ' o.*.@.O.B + ) ' ) ) ^ o.*.&.&.1.1.:.",
"..#.Q { G 3 w.B.d.w.9.9.1.:.$.{ { ) T Y / ) o.n $ &.w.+.{ ) / Y / / U H { $.} o.3 y o.^ U ' ' &.O.#.F @ ( ' ) ) Y ) o.O.@.o.@.@.",
"....Q ..N 6 0.N.B.n.k.9.5.5.&.{ ' ) / Y ^ ^ o.V O O.3.Y Y [ T T U G ^ &.1.{ ( @.3 w ( U ^ ' ) :.#.O.m o ( ' / Y ^ ^ ) } @.@.@.@.",
"^ U ^ ' j 8 z.s.s.z.k.w.1.5.$.O.} ) ) ' ' ( O.F O ^ 4.) Y [ ) T ^ ' &.O.L U o.^ : q ^ ^ ' { ' w.#.O.b O } ' ( L Y U L U ( ' _ L ",
"Q Q ` ..k q k.e.;.5.9.5.;.#.{ &.o.) / { o.} &.C + F *.@.) / ) Y ) ( ( ( o.' ^ { 2 r U U Q ( { 1.' O.b O $.' ( U L L L U Y ^ H m ",
"^ ^ Q $.b 3 ..,.0.,.,.&.@.Q U 5.o.' ) { o.@.&.V + ^ :.} o.{ { ' ^ ^ ^ U @.' G ' 7 t U U U ' o.@.{ O.l O :.' ' ( Y Y U H U T ^ ^ ",
"{ { :.9.v r B F ' ..` ' Q L 5.t.&.+.+.@.$.7.b B , { *.+.$.@.O.o.:.4.+.$.&.( Q ' y l K ' ' { { o.o.o.f ; e.&.#.o.{ @.o.$.o.' ' { ",
"{ o.' z 7 : F B b B B B k N ' o.' _ @.o.@.B x B = L B n n G G n V L C V V z B Q 8 j S z d f f p y l :   ' ..` ^ U ( ' U H C m F ",
"y w 7 8 7 , 0 6 0 0 3 S G z d j 0 p p 8 q w l q 7 8 3 3 2 , 4 7 * = - , 4 7 8 0 7 y 0 7 4 : $ 7 8 8 w 8 y d j t y 4 f t p l j l ",
"} { ) { ` #.o.$.e.s.t _ B.v.k.9.1.:.&.&.' { ) ' o.) ' ' &.V y @.o.O.o.{ @.;.w.e.$.#.1.w.y.:.y t.K.B.d.:.1.9.d.F.9.t $.K.N.5.@.@.",
"^ H Y / ( ) O.e.G.m.$ B y.$.&.&.&.&.:.+.o.} / / L ^ L F U B w B.k.y.5.o.' { @.$.#.@.y.e.k.9.+ ' :.L _ { @.-.r.m.m.2 ' v.o.K K Q ",
") ) U H L Y o.' 0.=.$ N 9.&.&.O.@.| ) ) } ) ) ) { ' ) ( ^ n y y.:.&.@.{ ' { ..o.$.#.,.-.w.&.; V ) F ^ ^ ! ' X.1.;.2 _ o.L L Q ^ ",
") ) H ) Y L ^ { $.#.: v :.$.$.o.[ | { [ ) ' ' ) ) ) ) ' :.F 8 1.3.&.@.{ ' ( ` @.L ^ 0.$.-.-.- F [ Y ) U ` ' ` %.%.2 J ! K L Q ` ",
") } ) Y L L F L ' @.2 z w.o.o.} O.[ | [ { ) ) / / ) ^ / [ U : ( $.o.{ { ' _ ^ #.n Q o.o.$.-.+ n o.U U U ! '  .#.X.> D _ K Q ^ ` ",
"' ' / Y U U G K U ) , z :.o.{ O.[ / [ O.{ ) / ) [ Y / ^ ( V 4 B G ) / ^ ^ / Y { F U o.{ @.{ . G ;. .! I Q ..` { { - F ^ L U ) ( ",
"/ ) Y Y ^ Q G K U K 7 p &.o.o.{ [ { U [ o.{ ) ^ / ) ) ^ ^ F 7 ' / Y Y / Y / ( ' ' ' ' { -.F O Q 1.%. .! Q { ' ` .., K U U ^ ^ ) ",
") / U L U L K K K G 6 d { { { { [ { / U +.O.) [ ^ ) ( _ ' K 4 O.} ' ' ^ L ) ' ) ( ^ ' ' ^ { : K d.O.;.! ^ _ ..` ` ; K ^ U Y ^ ' ",
"( ^ ^ Y U L Q L K K 0 v 0.{ $.+.+.[ { { U o.O.{ o.' Q ^ _ G 7 :.*.} ) ) } { ' { ' ' ' } +.b.6 ( P.m.f.5...X.o._ o.: F ..o.{ ' ) ",
"L L L ( E L Q K A S 2 7 F l h m m V V C / T &.&.@.' ^ ^ S v ; S 7.o.) L C h h w e y y l V B = w z z v v Q Q o.S S : n Q ^ U Y Y ",
"= < : 3 : : 3 2 ; 2 0 z k b b h z f h a z e 8 q q q t p 8 6   ; 4 5 q 7 + = Y U ) ( ) ( U ) @.' U _ Q 6 O ; ; 3 2 $ 3 6 3 : , = ",
"F { Y Y F K Q ..l Q s.$.<.+.o.O.O.+.| +.{ O.q ^ o.{ ..#.o.o.` _ ( ) #.>.l , +.<.>.u.l.i.w.7.7.i.y.y.A.f S ' L ^ ` ` L ' ^ ) ' m ",
"F 7.#.o.` ' o.n.l K ,.o.' / ' / T Y ) ) / ) a &.9.1.e.v.z.s.M.v.n.u.w.Z.L , ^ ^ ^ ' { ' } ) } +.&.4.5.q K ' ' ` ..@.' -.L L ' f ",
"l ^ L ^ ^ ^ -.o.t V @.' o.O.) ) ) } +.} o.' 5 ' ..{ ;.w.&.$.$.#.o.^ $.B.) , ^ ^ L L ) ) ) } } &.9.&.` 7 B ' U _ ' ..$.' L Y ) h ",
"h ) L ^ ( o.&...t n o.) { +.*.*.3.&.*.} } o.q F { ' ..:.{ @.{ ` { ' 1.k.F 4 U L L U L ^ ) ) O.$...' S - B ..U ^ ` o.$.^ L L ^ f ",
"x ) H ^ ' $.@.' t j ) ' } ) ' ' ) ' ) ) $.o.7 B Y ' ) Y @.{ U { ) o.o.&.F 7 ' U U / Y ( } o.+.) G H b $ b { ` ' _ +...L ^ Y ^ a ",
"x ) L Y { $.' U 4 z { ^ Y Y ) ) ) { / Y o.^ 4 G H ^ ) { { } U ' +.:.( { L 7 ( ^ ^ ^ ' { ) Y L L ^ ^ L 2 k Q ` Q _ @.Q Q U Y L w ",
"z } ' ^ ( { ^ U r t C ) T Y T ' ^ ( { { { / 7 C ^ ) ' | ) } ) } $.} ^ ^ F 7 L ^ ^ Y / Y Y ^ L L Q Q U 2 k Q ' Q  ...Q ` U L Y q ",
"z ' ' ( ^ L L ' w y L +.Y Y ' / [ ' ' { } / 3 F Y ) ) Y ) ^ ' o.{ L Y ( F 7 ( ^ Y ^ T ^ ^ ^ ^ Y _ ' ^ 4 v ` Q _ ' _ Q Q L V ^ q ",
"b ` Q _ ^ L ^ #.s w b ( ) ^ ) ) Y ( ( o.$.o.3 / ) ' ) O.H Y ' ) Y Y ^ { F 3 Y / ^ ( ' ) H C F ( U _ ' 7 V ..Q ..' _ _ U U L } f ",
"b ' L Q Q o.#.#.q f b F } } ' } ..{ { _ F L < L / } Y C h u x C V L ) ^ b = z { ) { o.z l ( ( ( U G Q 6 v ' G I Q U F V F Y ' f ",
"3 7 7 7 0 7 3 : O 3 4 9 e a f f k l y y 5 5 < = < e 5 < 5 5 < 7 7 9 : = 7 : < e q e 5 < 9 7 7 3 < 8 8 , 7 7 = 3 3 3 4 3 3 3 : : ",
"F B F V V p h b b l h h e & g V S S F F L } $.q w } } } } ) } ^ } ^ , ^ ' ^ ) H T } ' / ^ P L L F L L ( ' ^ 3 b ( H F B F H H F ",
"' L G L ( U V m L @.*.( L y o.o.@.a.z.s.k.#.' j 8 *.+.| ' ) +.) >.L < } :.O.L Y ) ) Y ] ) / ) } } } ) ) / >.q b L ( $.*.O.' ' ' ",
"..L L K Q ' m l b H F f B 9 Y F M J #.8.$.' ^ j 7 { } Y ^ ) ( ^ ' C 3 } :.L H ( / ) / / Y ) Y F ^ ' ) ^ L ' q h ' C F ' o.' ^ ( ",
"$.^ Q K ` K S N N L ` B L q U L A v ' #...^ L 0 8 ( ' Q ` o.^ U ' C : o.{ L ' ' ^ Y ) / / ) ) P U ' ' ^ } Y 7 f ' ( ^ G F ^ ' ( ",
"#...K Q ' G L S K L ( B B y ` F N M D =.o.J S t 0 ( Q Q ( ' Q G o.m = G ^ ' ( ' o.L ^ ) ) Y T ' ) ^ ^ H Y ) 9 q ' ( ) ' ( ^ U ( ",
"' $._ ' _ G L K Q L ` ^ F t ^ K J A D #.Q S B 6 7 ^ L ' ' ` Q F { B % B ' ` ' ' ` ^ ' ' ' ] ) T ' L ) ' L ( 9 5 ) ' ' ( ( ( ^ ' ",
"' o...Q ' L L Q L Q ` ^ Q s ^ J L b Q o.Q B m q f ^ L ' ' ^ L L $.G : ^ o._ ' _ ' ' ' } ) ' T ' Y Y ^ ) ' +.a 4 Y ) ' ' { ' U ( ",
"_ ' @.` ' K K Q ^ L ` ..` 0 ` L K F ^ ' F b m q y ^ ^ L Y ^ L ^ t.z 3 ^ ' ` ' _ ( ' o.' } ' ) ) ^ ' U ) { @.q 3 B ' ( ' ' ( ^ ^ ",
"` Q ` ' ` S K Q ^  . .`  .d E ' ( ' ^ G C l m y e ) H L L L { :.o.B : ' ' ^ ( ( ' o.] *.$.T L U ^ U ' ' ' :.a 3 j { ) ' U L ^ ) ",
"' +...{ $.` ^ ^ E K Q $.#.7 K  .o.{ ( C b b C 7 a o.^ / } $.<.:.' G 4 { ..' ..o.O.*.:.:.' ^ ^ ( ( ' #.o.,.y.p w z n ' K L U ^ ^ ",
"N v z b N 0 r N f j f c M . 6 r p p f a l a 9 & & e u h h f y w y 3 X w y y p e q f f < 7 q 7 7 0 8 6 t k S 2 X 7 8 8 4 , 4 p l ",
"d r f f d f y 7 3 + 3 y k h f h f y f 3 5 a h l b l l h h h l 6 v l k b n x z f z z z n - f f y 6 r o.t v b d l n L N 3 d p f j ",
"` Q #.o.' @.o.$.` r F ..' o.( ^ ( ( +.l p ' o./ } } { ..O.#.=.t J $.o.o.$.$.+.&.:.O.1.w.t B 8.' Q $.e.B $.-.` ^ ,.e.e.r &.k.w.@.",
"F S L Q ( ` U ' ' f L L ) L L L K Q ` j f ^ G L L S S J F F _ 0 ^ e.O.^ ) ^ ^ { O.$.( ^ 0 M @. .` ....y F  .' _ L o.o.8 ` :...S ",
"L E Q K K ^ ` ` ' q ( ` ^ ^ K L _ Q ` l 0 F K U Q F K F F Q Q r ..0.$.^ ) ' o.@.&.O.( ' r M _ E J @. .6 N ..^ ` U ( #.6 ( -.S L ",
"K Q Q ^ ..' _ ' L s L ' _ J K K E Q ~ j 0 v Q U ^ ^ F F F F ( d ' 1.$.( ' { $.>.o._ ^ ^ 0 M ~ W K Q Q 6 J _ Q ' _ Q ' 7 ' @.L K ",
"K Q ^ $.p.p.-.K _ d J  .Q R L D K J ~ i 0 { ^ L U { ( G C L ' q Q r.&.( { +.*.+.' ^ Q L 0 M ~ W E Q Q 7 K .._ _ ' _ ` 0 ` ..L E ",
"F L K Q -.z.=.K E d J _ Q Q Q D D J D d d _ G Q ^ U ^ o.( Y ( t F $...' @.o.o.' / Q ^ L 6 M ~ D Q Q Q 3 S ..' _ _ ` ^ t ' #.Q K ",
"L S F K ..o.J J J d E E K K J J D S S d y ^ _ B U { U ( ' ' ( r S ' G U +.} ' ( L V G ^ 0 Z ~ J K Q _ 4 G ' _ Q ' U L t ' o.L L ",
"^ L ` U L .._ J ` d L E Q K F F F S ^ f f o.^ ^ ' ( ( ' ' ..#.q B o.' ( O.o.) U U ^ K U d J Q K Q ' ' 7 Q ' ` ' ..^ ` t ' ,...Q ",
"F B F ' ' L F A b 1 l S F A N v k z L p 3 ^ U G G V L V N F ^ 2 0 S K S F L H G V b B V 3 B ..K K K K q Q _ _ _ ` ' ..0 d N S F ",
"e e 7 w y 7 7 7 # - t l f y f y p p y w y l f z h a w , $ 6 7 6 3 6 : $ = 3 3 3 6 3 3 4 : 3 6 3 p y d 0 v v z j l d j w f f d d ",
"o.' ' ' Q ^ ' ' 7 ' #...K B L ` ' } { o.&.' ' } } +.$.F : #.,.#.....( G H ^ ^ ' ^ L } o.$.,.' 8 ' Q U Q L Q ` ^ ( ' ' ' ..$.:.@.",
"} ) } { ' { ( L s ..K Q Q F ^ ^ ' ' ^ } ) H ^ ( ' ( { L 3 Q ' #.#.=.:.&.o.' ^ L G G F L ' &.' 0 J K Q Q ^ Q ^ Q ^ U Q ^ ^ ' #...",
"} } ' ( ' 1...S f ' L Q ^ ^ ^ ` ' } ) { ^ U ) ' ^ ' ' ( 6 K ` @.$.$.:.:.#.( L H L F F C F ( ' q F Q ..` L K U K Q L L Q Q ' o.o.",
"' ' ) { 9.v.o.S d _ L S K ` ^ ^ ) ' ' ' L ^ ' ' { { ^ ` 7 S ..o.-.-.$.o.' L L L L G G L G U ^ y ' G ^ #...K L ^ U L L Q ^ ^ ' o.",
"} ' { $.V.w.` S y ^ E S F ^ E Q ^ ^ ' ' L ) ( ) ( ^ Q ^ 0 B ....o.$.o.^ L L L Q F U L G F ( B 7 @.Q K { #.{ ' ` Q U U ^ ^ Q ^ ' ",
"{ { o.o.y.-.' K y Q Q Q Q Q K Q U L ` ' L ( Q ^ ' ^ L L 7 F _ Q ^ ( ( Q Q Q L K U K L L L ( b 8 -.&.^ K ^ ' { ' Q ^ ^ ^ ( ^ Q ' ",
") [ ( { o.o.` Q t Q L E K Q E K K K Q ^ K Q L L L U L L 7 G L F ' U K U U L L K F n ` ^ Q L N 4 #.,.' ^ ^ L K U U Q Q Q ^ ^ ^ ' ",
"+.@.{ @.......' y E J S A J E L K K L L K Q Q Q ^ ' ` F 6 F #.1.o.^ Q _ U L L L B K $.^ Q ' ^ 3 +.:.( U L U ^ ' ( ' ( ( ) ' { o.",
"h j j g p g M v ; t r s t 0 t v j k j d g z n n l v l r % t B b v z N V z k k d w f z d d f j O q y 7 q 0 8 8 q y p y w y f f j "
};
