/* XPM */
static char *_78761af83b24f28d9a2f97be79173aelCpXo38dOcWYY8N8[] = {
/* columns rows colors chars-per-pixel */
"64 64 242 2 ",
"   c #4C4C0A",
".  c #4C5008",
"X  c #555A05",
"o  c #53540B",
"O  c #555A0D",
"+  c #5A5D0C",
"@  c #555805",
"#  c #4C4D12",
"$  c #4A4919",
"%  c #535414",
"&  c #575B14",
"*  c #5B5D13",
"=  c #54551B",
"-  c #5C5D1C",
";  c #585719",
":  c #4F5014",
">  c #625E1A",
",  c #5E630D",
"<  c #5D6206",
"1  c #5D6114",
"2  c #5E621A",
"3  c #63650C",
"4  c #63690C",
"5  c #626515",
"6  c #666A15",
"7  c #696D14",
"8  c #62641B",
"9  c #66691B",
"0  c #6A6C1C",
"q  c #69661F",
"w  c #6C7214",
"e  c #6D721B",
"r  c #71751C",
"t  c #727818",
"y  c #555424",
"u  c #5C5C22",
"i  c #5D5C2A",
"p  c #595626",
"a  c #5A5935",
"s  c #4C4D2D",
"d  c #605D24",
"f  c #635E2A",
"g  c #625E34",
"h  c #5F6024",
"j  c #5E612B",
"k  c #636424",
"l  c #696525",
"z  c #666824",
"x  c #6A6C23",
"c  c #64642B",
"v  c #69652C",
"b  c #67692B",
"n  c #6B6C2B",
"m  c #716E2B",
"M  c #6D7124",
"N  c #6F712C",
"B  c #727524",
"V  c #757A23",
"C  c #73752C",
"Z  c #75792B",
"A  c #7A7B2C",
"S  c #797A27",
"D  c #646333",
"F  c #6C6B33",
"G  c #6A663A",
"H  c #6D6C3B",
"J  c #676537",
"K  c #716D32",
"L  c #716E3A",
"P  c #6E7237",
"I  c #737333",
"U  c #767936",
"Y  c #7A7B33",
"T  c #74733B",
"R  c #777A3D",
"E  c #7B7B3C",
"W  c #79753B",
"Q  c #6D6B42",
"!  c #6C6B4B",
"~  c #6D6743",
"^  c #726E4B",
"/  c #726F43",
"(  c #747343",
")  c #7A7644",
"_  c #7C7B43",
"`  c #75734C",
"'  c #7A764B",
"]  c #7B7A4B",
"[  c #77784C",
"{  c #767253",
"}  c #797553",
"|  c #7D7A54",
" . c #7A765A",
".. c #7E7B5C",
"X. c #777359",
"o. c #716E53",
"O. c #7D7963",
"+. c #817E4B",
"@. c #817E45",
"#. c #827D53",
"$. c #827D5B",
"%. c #867B5A",
"&. c #837D62",
"*. c #837E69",
"=. c #7D8228",
"-. c #7E8234",
";. c #7D813D",
":. c #7E8048",
">. c #7F8061",
",. c #82833B",
"<. c #858839",
"1. c #818129",
"2. c #828344",
"3. c #84834C",
"4. c #89844C",
"5. c #8B8B4C",
"6. c #898B44",
"7. c #8C9145",
"8. c #929349",
"9. c #858353",
"0. c #898554",
"q. c #8C8B53",
"w. c #85835B",
"e. c #8A855C",
"r. c #8D8B5B",
"t. c #878956",
"y. c #918D55",
"u. c #928E5C",
"i. c #90875C",
"p. c #939354",
"a. c #93935C",
"s. c #9A995B",
"d. c #8E9050",
"f. c #868263",
"g. c #8A8563",
"h. c #8D8A63",
"j. c #86846B",
"k. c #8B856B",
"l. c #8D8A6C",
"z. c #928D64",
"x. c #928D6C",
"c. c #918763",
"v. c #949263",
"b. c #9A9564",
"n. c #9C9B64",
"m. c #94936C",
"M. c #9A956B",
"N. c #9C9A6B",
"B. c #97996A",
"V. c #8C8B72",
"C. c #8D8C79",
"Z. c #8B8772",
"A. c #938D73",
"S. c #938D7A",
"D. c #988E73",
"F. c #949274",
"G. c #999473",
"H. c #9C9A74",
"J. c #95927B",
"K. c #9A957C",
"L. c #9C9A7B",
"P. c #979878",
"I. c #8F906D",
"U. c #A39B69",
"Y. c #A19E73",
"T. c #A29E7C",
"R. c #AA9D7D",
"E. c #9EA170",
"W. c #A4A264",
"Q. c #A4A36B",
"!. c #AAA769",
"~. c #A4A173",
"^. c #A4A27B",
"/. c #AAA67C",
"(. c #ADAA7C",
"). c #ABA675",
"_. c #B3AC79",
"`. c #B4B37A",
"'. c #B2B26C",
"]. c #A1A457",
"[. c #969482",
"{. c #9A9583",
"}. c #9D9B83",
"|. c #9D9B8B",
" X c #999589",
".X c #979588",
"XX c #A29D84",
"oX c #A29D8B",
"OX c #A39983",
"+X c #A39D93",
"@X c #A4A183",
"#X c #ABA584",
"$X c #ACAA84",
"%X c #A5A28B",
"&X c #AAA58D",
"*X c #ADAB8B",
"=X c #A6A883",
"-X c #B2AD84",
";X c #B2AD8D",
":X c #B4A787",
">X c #B9B485",
",X c #B5B38B",
"<X c #B8B687",
"1X c #A5A392",
"2X c #ABA693",
"3X c #ADAA93",
"4X c #AEAA9D",
"5X c #AAA699",
"6X c #B2AC93",
"7X c #B2AC9B",
"8X c #B2A791",
"9X c #B5B294",
"0X c #BAB693",
"qX c #BDBA94",
"wX c #B6B39C",
"eX c #BAB49C",
"rX c #BBB99C",
"tX c #B7B898",
"yX c #B3ACA1",
"uX c #B4AFA9",
"iX c #B6B2A2",
"pX c #BAB5A3",
"aX c #BEBAA4",
"sX c #BFBAA9",
"dX c #BAB5AA",
"fX c #AFABA0",
"gX c #9DA083",
"hX c #C1BD99",
"jX c #C2BE8E",
"kX c #C1BCA4",
"lX c #C2BCAC",
"zX c #C2BCB2",
"xX c #C4C293",
"cX c #C9C69B",
"vX c #D0CC9F",
"bX c #C4C0A4",
"nX c #C5C0AC",
"mX c #CBC8A9",
"MX c #CAC4B3",
"NX c #CCC8B7",
"BX c #D3D1B6",
"VX c #CFCDC0",
/* pixels */
"sXlXaXaXwXwX}.XX%XwX] u 8 Y I l B 6.2.+.' / #.} ..$.] _ E Z C n F v.G.F.P.G.H.v.I z p a D p 1 2 # N.xX,X9X#XA.l.f.x.F.K.J.J.2XpX",
"pXpXaX7X7XaX}.%X3X3XH u b '.>X4.l n _ 3.#.' } } | G J _ l b c p G H.L.OXL.G.m.v.k k 9.H.^.B.R & - K q.a.~.^.T.l.l.l.V.K.}.oXiXlX",
"pXMXiX7XaXpXwX&XeX9XJ v.( hX;XqX+.k l l H e.x.*X,X( H xXhXH.! &.2XpX3X%XoXXXm.) p v.mXmXaXmX,Xp.M , 5 M K h ( w.w.l.J.}.2XiXlXpX",
"MXMXsX7XpXaXaXwXtXw.g ^.| bX7XrX/.a.5.T ] 0XkXrXvX( ) qXeXlXwXsXzXzXaX%XoXXX^.( c a.$XkXlXwXeXxX].7 7 M z F ] h.f.F.XX}.}.5XsXlX",
"nXpXiX7X4X4XaX9X,XJ y y *X9XwXeXwXBXN.p h.mXlXbXxXj H $XwXyX4XfXdXlXaX&XoXF.q.b u r.H.{.3XaXrX-X7.B x k a.xXh.w.l.x.}.%X}.oXiXNX",
"lXlXkXMXzX7XbX0XjX) i B.mXaX3XeXwXmXY.Q @XnXlXwX^.j J H.wXiX4X1X7XpX&X@X2XG.W x k 3.*XJ.F.&XH.t.N z h v.$XF.A.k.O. .l.XX&X7XdXzX",
";X&XwX7XyX7X6X0XqX/ ` 9XiX7XpXwX6XwXL.h.3X7X5X1X^.J H H.P.|.5XoXwXaX&X@XOXh.C e x T ,X}.m.h.] ( T 9./.}.S.S. X4XO.o...l.P.%X7X7X",
"G.L.A.S.{.XX6XhXu.G h.aX7XpXwXrXwXaXL.F.K.2X1X1X&X` J T.}.%X1X4XpXwX3XL.x.w.A 6 5 n H.P.F.[ [ B.r.h.eXyX+X+XdX+XO.o.&.f.} } k.oX",
"G.P.oX%XXX;XbXM.l l T.wXwX6XtXtXrXbX*XV.}.7X5X1X%X! ! gX%X1X4X4X4X7X@Xm.h.0.8 6 6 l T.XX&.} m.L.m.^.2XoXoX|.2X*. .&.$.w.| } ..J.",
"z.G.eXhXhX>XvXq.* ,.,XeXwXbX9X9XrXwXXXP.2X1X|.|.J.a >.aXsXiX4XyX7X@X~.r.v.] - 9 5 8 ^.eXK.L.XXl.L.l.S.{.S.k.l.X.X.{ ..h.9.#.g.G.",
") ( h.G E '.!.C w <.cXrXaXnX2XwXiXpXA.L.XX2X%X@X*X! j.aXVXzXiXpXrXY.4.6._ p +.n.n k H.*XXX&XJ.J.F.j.Z.Z.w.| ] ( [ { | e.9.0.e.e.",
"( h.Q D k x A 3 3 5 n.hXkX7XoXiXuXdXL.l.L.F.*X/._ i h.NXMXiXwX*X,Xa.x C b ] 9X,Xa.- ' /.@XL.A.k.f.j.k.k.e.3.T T ] w.t.0.3.3.+.' ",
"l.@X%XL.M._ 6 7 7 q K >XeXoX1X7XzXiXh.] h.t.r.F & k a.mXBXnX=XN.U.6.r e I -XhX&X-X' = _ ~.v.~.H.g.l.O.l.B.5.C U R q.q.2.R I ( ` ",
"C.[.%XXX$X(.Z 3 5 > 8 _ /.&X&X2X3XT.) 2.I k 2 x w 0 s.mXsXaXv.:.,.,.S 0 4.xXeXOXXX).I % 2.q.u.v.B.m.{ | r.2.N C 6.5.2.,.,.W | w.",
"{.J.J.XX%XM.8 + > O 5 8 b.,X$XL.w.0.Y 9 9 e V t w w 5.qXMXwXT k I l l @.b.#XXX8X6X#Xp.* * E 4.3.4.r.>.( P U 9 5 A V e M M I g.k.",
"}.K.}.}.;X] % l 5.W   8 v a.a.T 3.n 8 5 0 6 , 7 w r d.>X/.` y c c T a.#.G G.Y.Y.M.' k m x l W I Z 2.n.3.b n 9 1 9 6 e 6 * n G.A.",
"XXXXXX;XQ.b y /.-XY._ d - * * + + * & & 5 9 _ _ S r Y ,.9 - 0.H.T.;X;XT.} g L v k K T ( 0.E 9 7 0 e ,.C b m k Y I 8 0 9 8 k r.H.",
"m.#X#XM.n R $XwXkX9XqX(._ l 5 0 @ * F T 2 E z.9.Y B 0 0 5 Y ^.aXpXiXwXeX0X9.d I Y E i.c.z.+.0 7 e S 1 - W H u.q.s.R 8 q z u F [ ",
"- T Q._ = b.*XoXiXaXkX6Xm.u.m l & p./.m.i 3.h.#.,.0 3 6 x p.T.%X7X2X;X$XY.L 4.y.+.) c.m.z.0.m 8 n F D e.^ ` m.v.a.q.n b n n k k ",
"x z n k ; ) P.7XaXpXlX2Xk.H.4.; k 0.G.l.^ h.$.' I + 5 0 W ~.&XoXJ.A.x.9.F 0.y.q.) L e.c.z.u.C > 3.] e.0X .j.x.x.9.a._ I F R b - ",
"k n z - u r.qX0X*X*X6XoXf.e.0.u k @.L.A...&.&.| R 0 A Z r.#XoX|.L.G.#.g ' 0.9.0.J G #.#.#.+.l ; q.r.( w.f.k.A.j.f.w.( T T R R I ",
"_ _ p.b - Q.,XqXhXkX7X%Xz.9.+.u ; _ H.l.l.j.&.| F q S N ^.9XoX%Xm.9.D G w.e.0.F f K ) H G v > > b F # y $.$.j.&.f.} ( ( T T +.] ",
"| v.(.T - Q.qXeXiXyXiX6Xw.9.0.d l 5.Y.^.^.$. .e.I 5 M z ~.9XXXL.( L M.G.x.z.v.L v K T F F v n x 1 + # H e.&.f.k.$.$.| ` ^ ` $.$.",
"k.x.$Xr.u 3.,X6XyXyXwX6Xr.0.T - q ,.W.`.v.] | #.Y 5 Y R H.;X&Xm.c y.z.x.k.k.h._ K v J T ) T I 8 e 5 - ] k.&.l.f.....{ {  .$.l.F.",
" X%X6XG.h u L ,XkXaXhX-Xr.q.n * B 0 ,.6.C R ] ] I % E T B.qX=Xe.- p.v.j.j.l.h.#.v v K 4.u.9.9.K 0 0 L z.Z.*.*.&.| ^ | ..f.f.P.P.",
" X|.oX*Xb & % T +.) T d u ; o 5 3 6 7 0 M N H _ k % I q.3.<X$X] - 5.z.j.k.l.c.' L H ' e.c.e.M.0.m q L c.l.j.&.f.] J ` m.F.F.A.F.",
"|.1X5X&X9.E 1 5 * x q 8 u c 5 3 6 e 9 6 9 9 k k 8 . _ ).T xXcXL k 3.z.x.k.k.e.G H #.f.f.A.k.g.v.I l ) e.g.f.$.w.) H G ] m.F.}.}.",
"L.}.1X%X] b 0 V e 0 q - #.).e 3 7 9 x 2 E 2.a.:.h k u R n p.Q.k n q.h.A.k.c.9.D g ^ A.A.l.k.h.u.K n 0.w.h.#.9.+.T T i D l.l.}.K.",
"H.@X}.F.T.<Xl 5 * - T h.wX#XE 7 r B b [ w.F.F.l.} #.] l q e 7 =.Z s.e.x.l.x.3.L g ~ k.l.f.x.b.y.- I 0.9.#.( @.Y M k y ` A.J.F.P.",
"I.@X7XpXeX-Xn 8 I ).0XoX7X@XE B 7 9 ( H.j.C.J.}.{.P.Y._ - x w r Y n.h.A.A.z._ I u L e.h.v.u.T - c 0.h.e.) R Y C 9 % ( j.C.J.F.L.",
"}.2XdX1XeX$Xz * 3.cXL.J.lXT.T <.e 9 v.F.C.C.wXwXiX3XM.i Q 0.I l K b.m.x.x.#.L n c W p.2.z 8 l p | G.x.e.] 2.C C - b G.C.[.[.J.J.",
"[.+X5XiX7X^.8 O r.;XwXS.J.w.W <.5 ,.m.V.C.wXbXrXiXbXm.i A...#.F k q.b.r.9.F K I 2.,.x 5 <.8.,.u $.k.w.H R Y 9 9 % :.l.Z.[.%XgXgX",
"|.Z.[.pXwXH.8 O B.9X3XF.$.T z x 2 p.=X}. XaXaXpXpXeXG T h.L.L.] * e 8.E n n Y Y S w 4 B 8.7.* & [ ( T k 1 , 6 1 k v.x.Z.V.%X&X=X",
"%X}.C.oX2XB.O 1 h.wX2X@Xt.H n 0 1 d.0X3XJ.2XkXwXrX^.F = H #X@Xv.B w B C - - > 0 7 7 t 6 B 8 + * u h - 9 1 1 1 * - 0.H.f...@X*X*X",
"%X[.+X5X3X0.1 1 H.6X{.J.%.L x V e S Q.^.l.A.6X9XqX9.- 8 v.~.v.5.A X + - i ] R n 7 3 , 0 0 9 e + O 2 k p T q.R % % F z.z.w.F.%X2X",
"H.I.2X%Xh.j 5 Y /.L.L.A.} ) x V =.5 k D p J ~ w.r.b 8 -.!.a.3.k S 5 5   ) (.b.p.-., @ + 0 9 <.8 & 8 k G $.f.+.d - - T q.9.0.H.L.",
"h P D H % 2 1 5.M.A.x.%.%.u.> 5 <.Y v u L d = - 8 8 0 Z ,.U u W I * O * d q.q.p.7.B 5 1 q l Q.q.& 8 % h.l.&.` c - O 9 -.-.;.2.F ",
";.s.B.j 8 5 M x ] z.e.#.M.U.W > W.4.= J _.W.s.@.C 1 x B 8 * f 0.3.k 2 o * % y.s.s.C * 8 b T H.N.- k T m.$.$.$.v.I 5 4 w e V M 9 ",
"=XmXBX$Xz 9 B 9 x W q.U.U.U.U.W m l p M.).-X~.b._ I x 5 w 0 9.j.$.g.c k * 8 C s.].C * * 3.r.=X~.h # ( h.g.f.&.m.q.S w t e e 9 -.",
"3X3XMXmX:.5 7 e 0 8 l 0.U.b.).b.l % 0.(.~.~.N._ E U C x < B M.j.l.f.r.R 8 1 5 9 n x * - r.-X,X/.b = = ( T ( f.w.u.7.w w 5 O 9 7.",
"*XwXNXBXF 5 r t w A !.-X#XR.#X_.v k U.Q.s.p.<.<.B 9 8 9 5 1 M.V. .f.r.3.9 1 & % # : 8 % a.(.=X$X_ % - o O o T b.Q.p.9 9 d _ x -.",
"/.tXNXNXB.k 0 e t 1.W.>X<X:X:Xu.v & z n -.1.V e 7 M R n.E ; [ w.w.0._ R - % # H ] D ; % k `././._ & 8 1 , 5 8 R 2.C & - ~.xX2.,.",
"^.;XsXNXmXz.a.- r S <.8.s.`.U.u l 5 B e 7 0 9 9 1 F @X9X$XJ   I 2.U x 2 u j h.@XL.m.n l o C N.v.N & 1 1 & 8 o 8 e 7 * E <Xb.n p.",
"/.*XaXNXkXl.-XT 8 r 7 7 C E G +.I 0 e e x n 2.u H w.[.4X3Xm.- O & 2 - I e.L.1X}.J.l.3.8 < @ n n - & - k L H I B w w & N.>X9.I 5.",
"*X9XpXMX6XX.2X@XF 9 w 4 0 ; | $X2.* 9 M q.H.T.X.j.J.C..X{.h.k 1 z u 0.^.oX1X|.}.l.h.n.C w t 5 8 c J H ] l.h.q.Z t 5 F ~.^.~.E <.",
"H.$XkX*X| a %X&Xz.R 6 V 5.e.XXx.( 2 1 N v.F.oXS.Z.J.}.V.l.] k z = b.9X{.+X+X[.J.l.B.d.<.w 4 e 8 ( ` w.z.A.G.9.n 0 5 @.N.^.Y.I C ",
"h _ T : 2 k } V.P.N.- U ,X&XS.V.9.h 9 5 R t.g.m.g.i p s._ - 5 2 ( ;XXX2XoX%X2X&X=Xv.6.<.e , 9 k ( ` e.z.l.A.r.n 5 0 E q.<X>X5.q ",
"l k H I N n G { j.L.P P %X%X}.XX] = + 1 z 2._ ( +.= * 0 * * 6 * ) *X%X{.L.&XwX2X=Xv.6.=.e 7 q P ( ^ | f.A.j.v.k 9 0 ;.3.>X>X!.5.",
"$XG.XXG.m.0.f H $.f.:.D }.1X2X9X[ k 1 5 A 0 x x 8 1 9 1 * 9 6 0 - D h.@XP.%XoX3X6XB.8.=.t 4 8 H } X.{ { ..h.3.k q 0 6.y.Y.).!.!.",
"eXK.OXOXJ.G.G p ( ] 3.( {.1X3X@X] n M 9 9 0 9 0 6 6 5 0 C q 8 5 * % D ^.XXK.A.@XG.a.<.=.=.7 x T } $. .o.` ' T 8 n n p.a.n.).)._.",
"6XOXD.A.J.K.H - c _ 2.J P.4XwX*X] n 2 9 k l - - 5 6 , x E n k & O - y | #XXXG.e.0.R C V t w 5 n ] | X. .[ T n 9 8 E W.s.U.(.$X8X",
"XX#XG.m.S.x.F - k I n p ^.L.f.w.G U 9 N 3.9.( p 5 6 1 k ) ] G - - % H Q | G.v.0.T - M r w V 1 n _ | f.f.] R x 8 E W.W.s._.>X&X2X",
";XT.h.e.{ } T b b 9.q.i M.| Q H R U 9 n v.$.&.$.R n k v e.m.w.p = u L B.a | u.+.W k Z M + e 8 z b H ] T k C 0 5 5.`.~.~.>X$XoX+X",
"(.U.0.0.$.' b - c a.B.( $ G ( T K C M & 3.] ` ( I C I T z.f.l.G k k _ a.9.i n.q.u k x q + 8 k : % = u n 5 6 5 + 2.n.n.>XjX$X;X*X",
"s.n.q.0.0.) 8 q F 3.3.G T p p 3.2.N 9 + B S x B w 4 , k w.f.$.J k * Y d.I # % u u l ; - K _ z.e.| [ % 8 1 O 5 8 s.).`.`.p.R 3.N.",
"l U 5.q._ n x n E k F a.p.F h 3.W C 5 , 4 r e w 4 7 5 k G 9.Q T z 0 8 x o l 5.% % k - m a.r.h.x.v.~.k x 9 @ 5 & W.s.2.N 8 * o 1 ",
"- l x Y Y x B x - k k R 3.2.8 x M 1 0 6 , 9 Z 8 8 x I I k I N x 0 5 5 * o x 5.l I 7.* E 5.+.t.9.) _ b & * 5 & & 2 2 9 X , X @ X ",
"9 x q x x x 8 8 l z k _ 3._ 8 0 1 N I n b k l H ( ] _ I I B 5 5 + 8 * * n -   8 n C x n R _ L ) T I & 1 * 1 8 2 1 1 e 5 , X X @ ",
"5 8 - k u # = p i u l T T _ x 8 b r.z.g.w.w.} | | [ ( F C M 9 0 8 8 % n n.a.F - x 8 8 I _ ] ( T b I 8 + 1 1 8 C C 6 9 M z - 2 2 ",
"6 * F ^.Q l.^.T.N.H k K W n 8 k | l.l.*.O.f.&.....Q H F l 9 x 0 1 * - T t.v.Q._ 8 x k Q./.~.M.N.T - 8 O O 2 n I ,.,.I E c c ; % ",
"7 & m.nX|.pX2X9XB.c - C I z I r.L.j.*.j.*. . .{ ` G F U n z z 8 0 * k 9.h.m.$Xu.I % _ -XH.G.$.' ` T - k k _ ] :.R E R r.` p = b ",
". u 9X%X.X|.3XT.3.k 8 S C z R N.L.k.j.Z.A...{ ` J H b I I l - - * . _ M.A.A.T.B.W % q.Q.w.$.w.w.] ] h p v.9.e.] ] 3.9.w.L.m.( # ",
"m.! s a ! ^ H 6.8.e 1 M C l I b.l.f.X.^ { ^ ! Q / T F H T D i p k u r.m.A.{.XXH.W 2 8 z 2._ T _ 6.F D H.=XL.l...w.w.f.w.P.gXL.m.",
"NXsX@X^.m.r.h 9 4 4 5 0 9 9 l _ G.f.} } ! ` { } ] ( T ) ] ) ) D G 0.M.F.{.[.J.T._ * 5 1 8 k k x 2 k ~.9X6X{.F.l.....l.F.j.L.&XrX"
};
